<svg width="70" height="71" viewBox="0 0 70 71" fill="none" xmlns="http://www.w3.org/2000/svg">
<path d="M11.6668 61.75C10.0627 61.75 8.6894 61.1789 7.54704 60.0365C6.40468 58.8941 5.8335 57.5209 5.8335 55.9167V23.8334C5.8335 22.2292 6.40468 20.8559 7.54704 19.7136C8.6894 18.5712 10.0627 18 11.6668 18H23.3335V12.1667C23.3335 10.5625 23.9047 9.18928 25.047 8.04692C26.1894 6.90455 27.5627 6.33337 29.1668 6.33337H40.8335C42.4377 6.33337 43.8109 6.90455 44.9533 8.04692C46.0956 9.18928 46.6668 10.5625 46.6668 12.1667V18H58.3335C59.9377 18 61.3109 18.5712 62.4533 19.7136C63.5956 20.8559 64.1668 22.2292 64.1668 23.8334V55.9167C64.1668 57.5209 63.5956 58.8941 62.4533 60.0365C61.3109 61.1789 59.9377 61.75 58.3335 61.75H11.6668ZM29.1668 18H40.8335V12.1667H29.1668V18ZM58.3335 44.25H43.7502V47.1667C43.7502 47.9931 43.4706 48.6858 42.9116 49.2448C42.3526 49.8039 41.6599 50.0834 40.8335 50.0834H29.1668C28.3404 50.0834 27.6477 49.8039 27.0887 49.2448C26.5297 48.6858 26.2502 47.9931 26.2502 47.1667V44.25H11.6668V55.9167H58.3335V44.25ZM32.0835 44.25H37.9168V38.4167H32.0835V44.25ZM11.6668 38.4167H26.2502V35.5C26.2502 34.6737 26.5297 33.9809 27.0887 33.4219C27.6477 32.8629 28.3404 32.5834 29.1668 32.5834H40.8335C41.6599 32.5834 42.3526 32.8629 42.9116 33.4219C43.4706 33.9809 43.7502 34.6737 43.7502 35.5V38.4167H58.3335V23.8334H11.6668V38.4167Z" fill="#1F1F1F"/>
</svg>
