<svg width="70" height="71" viewBox="0 0 70 71" fill="none" xmlns="http://www.w3.org/2000/svg">
<path d="M55.4168 44.25C56.0002 43.6667 56.6929 43.375 57.495 43.375C58.297 43.375 58.9897 43.6667 59.5731 44.25L64.1668 48.9167C64.7502 49.5 65.0418 50.1806 65.0418 50.9583C65.0418 51.7361 64.7502 52.4167 64.1668 53C63.5835 53.5833 62.9029 53.875 62.1252 53.875C61.3474 53.875 60.6668 53.5833 60.0835 53L55.4168 48.4063C54.8335 47.8229 54.5418 47.1302 54.5418 46.3281C54.5418 45.526 54.8335 44.8333 55.4168 44.25ZM58.3335 9.25C58.9168 9.83333 59.2085 10.526 59.2085 11.3281C59.2085 12.1302 58.9168 12.8229 58.3335 13.4063L53.7397 18C53.1564 18.5833 52.4637 18.875 51.6616 18.875C50.8595 18.875 50.1668 18.5833 49.5835 18C49.0002 17.4167 48.7085 16.724 48.7085 15.9219C48.7085 15.1198 49.0002 14.4271 49.5835 13.8438L54.2502 9.25C54.8335 8.66667 55.5141 8.375 56.2918 8.375C57.0696 8.375 57.7502 8.66667 58.3335 9.25ZM11.6668 9.25C12.2502 8.66667 12.9429 8.375 13.745 8.375C14.547 8.375 15.2397 8.66667 15.8231 9.25L20.4168 13.9167C21.0002 14.5 21.2918 15.1806 21.2918 15.9583C21.2918 16.7361 21.0002 17.4167 20.4168 18C19.8335 18.5833 19.1408 18.875 18.3387 18.875C17.5366 18.875 16.8439 18.5833 16.2606 18L11.6668 13.4063C11.0835 12.8229 10.7918 12.1302 10.7918 11.3281C10.7918 10.526 11.0835 9.83333 11.6668 9.25ZM14.5835 44.25C15.1668 44.8333 15.4585 45.526 15.4585 46.3281C15.4585 47.1302 15.1668 47.8229 14.5835 48.4063L9.98975 53C9.40641 53.5833 8.7137 53.875 7.91162 53.875C7.10954 53.875 6.41683 53.5833 5.8335 53C5.25016 52.4167 4.9585 51.724 4.9585 50.9219C4.9585 50.1198 5.25016 49.4271 5.8335 48.8438L10.5002 44.25C11.0835 43.6667 11.7641 43.375 12.5418 43.375C13.3196 43.375 14.0002 43.6667 14.5835 44.25ZM25.8127 49.5729L35.0002 44.0313L44.1877 49.6458L41.7814 39.1458L49.8752 32.1458L39.2293 31.1979L35.0002 21.2813L30.771 31.125L20.1252 32.0729L28.2189 39.1458L25.8127 49.5729ZM35.0002 50.8854L22.896 58.1771C22.3613 58.5174 21.8022 58.6632 21.2189 58.6146C20.6356 58.566 20.1252 58.3715 19.6877 58.0313C19.2502 57.691 18.9099 57.2656 18.6668 56.7552C18.4238 56.2448 18.3752 55.6736 18.521 55.0417L21.7293 41.2604L11.0106 32C10.5245 31.5625 10.2206 31.0642 10.0991 30.5052C9.97759 29.9462 10.0141 29.3993 10.2085 28.8646C10.4029 28.3299 10.6946 27.8924 11.0835 27.5521C11.4724 27.2118 12.0071 26.9931 12.6877 26.8958L26.8335 25.6563L32.3022 12.6771C32.5453 12.0938 32.922 11.6563 33.4325 11.3646C33.9429 11.0729 34.4654 10.9271 35.0002 10.9271C35.5349 10.9271 36.0575 11.0729 36.5679 11.3646C37.0783 11.6563 37.455 12.0938 37.6981 12.6771L43.1668 25.6563L57.3127 26.8958C57.9932 26.9931 58.5279 27.2118 58.9168 27.5521C59.3057 27.8924 59.5974 28.3299 59.7918 28.8646C59.9863 29.3993 60.0227 29.9462 59.9012 30.5052C59.7797 31.0642 59.4759 31.5625 58.9897 32L48.271 41.2604L51.4793 55.0417C51.6252 55.6736 51.5766 56.2448 51.3335 56.7552C51.0904 57.2656 50.7502 57.691 50.3127 58.0313C49.8752 58.3715 49.3647 58.566 48.7814 58.6146C48.1981 58.6632 47.6391 58.5174 47.1043 58.1771L35.0002 50.8854Z" fill="#1F1F1F"/>
</svg>
